<?xml version="1.0" encoding="UTF-8"?>
<svg width="170px" height="44px" viewBox="0 0 170 44" version="1.1" xmlns="http://www.w3.org/2000/svg" xmlns:xlink="http://www.w3.org/1999/xlink">
    <!-- Generator: Sketch 51.3 (57544) - http://www.bohemiancoding.com/sketch -->
    <title>logo 蓝</title>
    <desc>Created with Sketch.</desc>
    <defs>
        <linearGradient x1="50.03367%" y1="-35.9413203%" x2="50.03367%" y2="97.799511%" id="linearGradient-1">
            <stop stop-color="#0097E0" offset="0%"></stop>
            <stop stop-color="#00AAEB" offset="25%"></stop>
            <stop stop-color="#00B9EF" offset="100%"></stop>
        </linearGradient>
        <linearGradient x1="50%" y1="13.484252%" x2="50%" y2="282.677165%" id="linearGradient-2">
            <stop stop-color="#0097E0" offset="0%"></stop>
            <stop stop-color="#00AAEB" offset="25%"></stop>
            <stop stop-color="#00B9EF" offset="100%"></stop>
        </linearGradient>
        <linearGradient x1="49.3047098%" y1="96.3526028%" x2="50.8927634%" y2="2.9688948%" id="linearGradient-3">
            <stop stop-color="#00A0E9" offset="0%"></stop>
            <stop stop-color="#00B9EF" offset="100%"></stop>
        </linearGradient>
        <linearGradient x1="50.0000005%" y1="95.775069%" x2="50.0000005%" y2="4.11743287%" id="linearGradient-4">
            <stop stop-color="#00A0E9" offset="0%"></stop>
            <stop stop-color="#0FA6EA" offset="24%"></stop>
            <stop stop-color="#36B7EE" offset="70%"></stop>
            <stop stop-color="#54C3F1" offset="100%"></stop>
        </linearGradient>
        <linearGradient x1="-1.24441056%" y1="44.2774759%" x2="101.110045%" y2="52.3249226%" id="linearGradient-5">
            <stop stop-color="#FFFFFF" stop-opacity="0.95" offset="0%"></stop>
            <stop stop-color="#FFFFFF" stop-opacity="0.74" offset="14%"></stop>
            <stop stop-color="#FFFFFF" stop-opacity="0.52" offset="31%"></stop>
            <stop stop-color="#FFFFFF" stop-opacity="0.33" offset="47%"></stop>
            <stop stop-color="#FFFFFF" stop-opacity="0.19" offset="63%"></stop>
            <stop stop-color="#FFFFFF" stop-opacity="0.08" offset="77%"></stop>
            <stop stop-color="#FFFFFF" stop-opacity="0.02" offset="90%"></stop>
            <stop stop-color="#FFFFFF" stop-opacity="0" offset="100%"></stop>
        </linearGradient>
        <radialGradient cx="53.2194324%" cy="-8.93300678%" fx="53.2194324%" fy="-8.93300678%" r="105.581481%" gradientTransform="translate(0.532194,-0.089330),scale(0.579985,1.000000),rotate(1.071325),translate(-0.532194,0.089330)" id="radialGradient-6">
            <stop stop-color="#BAE3F9" offset="0%"></stop>
            <stop stop-color="#1B95D4" stop-opacity="0" offset="100%"></stop>
        </radialGradient>
    </defs>
    <g id="官网首页" stroke="none" stroke-width="1" fill="none" fill-rule="evenodd">
        <g id="logo-蓝" fill-rule="nonzero">
            <rect id="Rectangle-path" fill="#3E3A39" x="99.2244898" y="15.0989474" width="1" height="21.6410526"></rect>
            <path d="M17.8557823,35.6747368 C17.8557823,35.6747368 22.6840136,39.6926316 25.5057823,41.9910526 C25.5057823,41.9910526 25.8006803,42.2168421 25.9972789,41.9910526 C25.9972789,41.9910526 28.4894558,39.5942105 29.0098639,39.6752632 C29.0098639,39.6752632 29.1659864,39.6752632 28.9462585,40.1036842 C28.2830465,41.249653 27.4788019,42.3077469 26.552381,43.2531579 C26.3917404,43.4319147 26.1665345,43.5391508 25.926664,43.5511048 C25.6867935,43.5630588 25.4520652,43.4787438 25.2744898,43.3168421 C25.2744898,43.3168421 17.4683673,36.7573684 17.1387755,36.4736842 C17.0153436,36.3769685 16.9364128,36.2342266 16.9200616,36.0781526 C16.9037105,35.9220786 16.95134,35.7660447 17.0520408,35.6457895 C17.2838821,35.4367585 17.6395404,35.4495679 17.8557823,35.6747368 Z" id="Shape" fill="#3E3A39"></path>
            <path d="M11.2061224,35.6747368 C11.2061224,35.6747368 6.36054422,39.6926316 3.56190476,41.9910526 C3.56190476,41.9910526 3.2670068,42.2168421 3.07040816,41.9910526 C3.07040816,41.9910526 0.578231293,39.5942105 0.0520408163,39.6752632 C0.0520408163,39.6752632 -0.0982993197,39.6752632 0.115646259,40.1036842 C0.778858291,41.249653 1.58310288,42.3077469 2.50952381,43.2531579 C2.67016437,43.4319147 2.89537023,43.5391508 3.13524073,43.5511048 C3.37511124,43.5630588 3.60983952,43.4787438 3.78741497,43.3168421 C3.78741497,43.3168421 11.5993197,36.7573684 11.9231293,36.4736842 C12.0465612,36.3769685 12.125492,36.2342266 12.1418431,36.0781526 C12.1581943,35.9220786 12.1105648,35.7660447 12.0098639,35.6457895 C11.7780226,35.4367585 11.4223644,35.4495679 11.2061224,35.6747368 Z" id="Shape" fill="#3E3A39"></path>
            <path d="M16.8380952,28.0847368 C16.8380952,28.0847368 17.3816327,27.5057895 21.6836735,25.4621053 C21.8061402,25.3965822 21.9582433,25.4340309 22.0363946,25.5489474 C22.0363946,25.5489474 23.3721088,27.0715789 24.927551,26.9905263 C25.1048373,26.9699106 25.253895,26.8478033 25.3091837,26.6778947 C25.5173469,26.1568421 24.0891156,25.52 24.0891156,25.52 C23.712632,25.3671761 23.4785968,24.9875695 23.5108844,24.5821053 C23.5414288,24.3419834 23.4529182,24.1020602 23.2738095,23.9394737 C22.764966,23.5342105 21.0707483,24.6168421 21.0707483,24.6168421 C18.5034014,26.0063158 16.4217687,27.2105263 16.4217687,27.2105263 C16.4217687,27.2105263 15.8435374,27.4826316 16.0806122,27.94 C16.0806122,27.9515789 16.2656463,28.3684211 16.8380952,28.0847368 Z" id="Shape" fill="#3E3A39"></path>
            <path d="M12.3221088,28.2642105 C12.3221088,28.2642105 11.7438776,27.7431579 7.32040816,25.9484211 C7.19557395,25.8883278 7.04560265,25.9366835 6.9792517,26.0584211 C6.9792517,26.0584211 5.74183673,27.6621053 4.16904762,27.6852632 C3.99081604,27.6717661 3.83484221,27.5602183 3.76428571,27.3957895 C3.52721088,26.8863158 4.9207483,26.18 4.9207483,26.18 C5.2928343,26.0092148 5.50734261,25.612709 5.44693878,25.2073684 C5.40367198,24.9692941 5.47922464,24.7250648 5.64931973,24.5531579 C6.1292517,24.1189474 7.88707483,25.0857895 7.88707483,25.0857895 C10.5238095,26.29 12.6863946,27.3726316 12.6863946,27.3726316 C12.6863946,27.3726316 13.2646259,27.61 13.0738095,28.0789474 C13.0680272,28.0847368 12.9176871,28.5073684 12.3221088,28.2642105 Z" id="Shape" fill="#3E3A39"></path>
            <path d="M18.7346939,34.9568421 C18.7346939,38.2105263 16.814966,40.8736842 14.4557823,40.8736842 C12.0965986,40.8736842 10.1479592,38.2105263 10.1479592,34.9568421 C10.1479592,31.7031579 12.0676871,29.0342105 14.4557823,29.0342105 C16.8438776,29.0342105 18.7346939,31.6857895 18.7346939,34.9568421 Z" id="Shape" fill="url(#linearGradient-1)"></path>
            <path d="M17.0520408,26.9268421 C17.0520408,28.5536842 15.8955782,29.8678947 14.4962585,29.8678947 C13.0969388,29.8678947 11.9404762,28.5536842 11.9404762,26.9268421 C11.9404762,25.3 13.0969388,23.9857895 14.4962585,23.9857895 C15.8955782,23.9857895 17.0520408,25.3 17.0520408,26.9268421 Z" id="Shape" fill="url(#linearGradient-2)"></path>
            <path d="M8.56360544,13.2810526 C8.56360544,13.2810526 7.1122449,7.83894737 11.2003401,2.31578947 L11.529932,2.83684211 C11.529932,2.83684211 8.71394558,6.36842105 9.45986395,12.3952632 L8.56360544,13.2810526 Z" id="Shape" fill="#3E3A39"></path>
            <path d="M14.0394558,0.387894737 C14.5309524,0.966842105 14.2880952,1.98 13.4959184,2.65736842 C12.7037415,3.33473684 11.6629252,3.41578947 11.1829932,2.83684211 C10.7030612,2.25789474 10.9285714,1.24473684 11.7207483,0.567368421 C12.5129252,-0.11 13.5421769,-0.191052632 14.0394558,0.387894737 Z" id="Shape" fill="#3E3A39"></path>
            <path d="M17.1214286,11.7294737 C17.1214286,11.7294737 19.2088435,6.51894737 25.794898,4.53894737 L25.7255102,5.15263158 C25.7255102,5.15263158 21.3540816,6.31052632 18.3704082,11.5557895 L17.1214286,11.7294737 Z" id="Shape" fill="#3E3A39"></path>
            <path d="M29.3163265,4.63157895 C29.362585,5.39578947 28.5646259,6.06736842 27.5238095,6.13684211 C26.4829932,6.20631579 25.6040816,5.64473684 25.5520408,4.88631579 C25.5,4.12789474 26.3037415,3.45631579 27.3445578,3.38684211 C28.3853741,3.31736842 29.2642857,3.86157895 29.3163265,4.63157895 Z" id="Shape" fill="#3E3A39"></path>
            <path d="M4.76462585,16.4131579 C5.04795918,9.84210526 10.6568027,11.2721053 13.1085034,7.52631579 C15.1207483,10.9189474 22.672449,7.81578947 23.4068027,16.3436842 C23.8057823,21.0273684 20.3595238,24.2057895 14.2765306,24.5357895 C8.91054422,24.8252632 4.49863946,22.5442105 4.76462585,16.4131579 Z" id="Shape" fill="url(#linearGradient-3)"></path>
            <path d="M19.8044218,18.8389474 C19.5153061,19.0357895 13.4901361,24.0842105 4.81666667,18.0863158 C4.84551036,18.3626384 4.88991207,18.6371102 4.94965986,18.9084211 L4.98435374,19.0763158 C5.94421769,23.21 9.77789116,24.7731579 14.2765306,24.53 C18.0003401,24.3273684 20.7295918,23.0594737 22.1982993,21.0563158 C22.9037415,19.6842105 21.4812925,17.7157895 19.8044218,18.8389474 Z" id="Shape" fill="url(#linearGradient-4)"></path>
            <path d="M13.877551,18.7115789 C7.00238095,19.1631579 7.22210884,15.0526316 7.22210884,15.0526316 C7.3377551,11.1968421 13.4323129,11.0868421 13.4323129,11.0868421 C13.4323129,11.0868421 20.5387755,10.6121053 20.5908163,14.7342105 C20.5908163,14.7110526 20.8163265,18.3526316 13.877551,18.7115789 Z" id="Shape" fill="#008CD6"></path>
            <path d="M13.877551,18.9721053 C6.83469388,19.3078947 7.21632653,15.3015789 7.21632653,15.3015789 C7.33197279,11.4515789 13.4091837,11.4342105 13.4091837,11.4342105 C13.4091837,11.4342105 20.4982993,10.8552632 20.5561224,14.9831579 C20.5734694,14.9831579 20.8914966,18.6536842 13.877551,18.9721053 Z" id="Shape" fill="#FFFFFF"></path>
            <path d="M18.5438776,20.1068421 C14.9414966,22.6252632 9.9744898,21.2647368 9.29217687,20.8652632 C8.60986395,20.4657895 8.96258503,19.8 9.55816327,19.9736842 C12.5283554,20.7860915 15.6874265,20.5489189 18.5034014,19.3021053" id="Shape" fill="url(#linearGradient-5)"></path>
            <path d="M13.9122449,13.8542105 C12.8394291,13.9551448 12.0491307,14.9041603 12.1428571,15.9789474 C12.1428571,15.9789474 12.1428571,16.1584211 12.4030612,16.1352632 C13.5460174,15.916409 14.7091721,15.8213004 15.872449,15.8515789 C15.9235941,15.8516791 15.9724994,15.830579 16.0075525,15.793289 C16.0426056,15.7559989 16.0606797,15.7058452 16.057483,15.6547368 C16.0164964,15.1291232 15.766027,14.6421217 15.3624939,14.3034312 C14.9589609,13.9647406 14.4363009,13.8028445 13.9122449,13.8542105 Z" id="Shape" fill="#3E3A39"></path>
            <g id="Group" opacity="0.2" transform="translate(12.142857, 13.894737)" fill="url(#radialGradient-6)">
                <path d="M1.79251701,0.0636842105 C0.936943174,0.131380226 0.297808563,0.880119681 0.364285714,1.73684211 C0.364285714,1.73684211 0.364285714,1.88157895 0.57244898,1.86421053 C1.48076773,1.68777764 2.40573319,1.61205788 3.33061224,1.63842105 C3.37104182,1.63855081 3.40967816,1.62172285 3.43714648,1.59202033 C3.4646148,1.5623178 3.47840466,1.52245535 3.47517007,1.48210526 C3.39862825,0.626800479 2.64731418,-0.00653251567 1.79251701,0.0636842105 Z" id="Shape"></path>
            </g>
            <path d="M34.0462585,31.1994737 L31.8894558,35.9873684 L32.8377551,35.9873684 L33.4853741,34.5631579 L35.2721088,34.5631579 L35.902381,35.9873684 L36.844898,35.9873684 L34.7227891,31.1994737 L34.0462585,31.1994737 Z M33.8438776,33.7873684 L34.3527211,32.6294737 L34.3527211,32.5831579 L34.8962585,33.7931579 L33.8438776,33.7873684 Z" id="Shape" fill="#3E3A39"></path>
            <path d="M50.7687075,32.6642105 C50.7517258,32.4787308 50.8197956,32.2955668 50.9537415,32.1663158 C51.084232,32.0609468 51.2488985,32.0073639 51.4163265,32.0157895 L53.2435374,32.0157895 L53.2435374,31.2631579 L51.4163265,31.2631579 C51.0105006,31.245034 50.6125316,31.379231 50.3003401,31.6394737 C50.0149846,31.908454 49.8626511,32.2897594 49.8840136,32.6815789 L49.8840136,36.0047368 L50.7687075,36.0047368 L50.7687075,33.9957895 L53.2897959,33.9957895 L53.2897959,33.2257895 L50.7687075,33.2257895 L50.7687075,32.6642105 Z" id="Shape" fill="#3E3A39"></path>
            <path d="M82.3285714,31.1994737 L80.1717687,35.9873684 L81.120068,35.9873684 L81.7734694,34.5631579 L83.5659864,34.5631579 L84.1962585,35.9873684 L85.1387755,35.9873684 L83.022449,31.1994737 L82.3285714,31.1994737 Z M82.1088435,33.7873684 C82.2823129,33.4052632 82.4557823,33.0289474 82.6234694,32.6294737 L82.6234694,32.5831579 L83.1670068,33.7931579 L82.1088435,33.7873684 Z" id="Shape" fill="#3E3A39"></path>
            <path d="M86.9428571,34.87 L86.9428571,31.2226316 L86.052381,31.2226316 L86.052381,34.87 C86.052381,36.0278947 87.1510204,36.0278947 87.5095238,36.0278947 L89.3309524,36.0278947 L89.3309524,35.2752632 L87.5095238,35.2752632 C87.0353741,35.2752632 86.9428571,35.1363158 86.9428571,34.87 Z" id="Shape" fill="#3E3A39"></path>
            <path d="M41.1527211,31.4021053 C41.1527211,31.9347368 41.1527211,32.5136842 41.1527211,33.22 L41.1527211,34.5168421 L38.5911565,31.2052632 L37.862585,31.2052632 L37.862585,35.9873684 L38.7414966,35.9873684 L38.7414966,33.3647368 L38.7414966,32.7857895 L38.7877551,32.8436842 L41.2105442,35.9815789 L42.037415,35.9815789 L42.037415,31.2284211 L41.1527211,31.2284211 L41.1527211,31.4021053 Z" id="Shape" fill="#3E3A39"></path>
            <polygon id="Shape" fill="#3E3A39" points="43.2459184 32.0968421 44.8418367 32.0968421 44.8418367 35.9931579 45.7265306 35.9931579 45.7265306 32.0968421 47.3571429 32.0968421 47.3571429 31.3268421 43.2459184 31.3268421"></polygon>
            <path d="M64.1085034,31.1994737 L61.9459184,35.9873684 L62.9,35.9873684 L63.547619,34.5631579 L65.3401361,34.5631579 L65.9704082,35.9873684 L66.9187075,35.9873684 L64.7965986,31.1994737 L64.1085034,31.1994737 Z M63.9003401,33.7873684 L63.9003401,33.7526316 L64.414966,32.6236842 L64.414966,32.5773684 L64.9585034,33.7873684 L63.9003401,33.7873684 Z" id="Shape" fill="#3E3A39"></path>
            <rect id="Rectangle-path" fill="#3E3A39" x="54.5156463" y="31.2863158" width="1" height="4.70105263"></rect>
            <path d="M76.7486395,35.2463158 C76.4768707,35.2463158 76.1704082,35.2868421 75.8465986,35.2868421 C75.094898,35.2868421 74.6901361,35.1652632 74.5282313,34.9278947 C74.3541611,34.542891 74.2710579,34.1228981 74.2853741,33.7005263 C74.2803834,33.3048023 74.3510408,32.911775 74.4935374,32.5426316 C74.6438776,32.2184211 75.0717687,32.0678947 75.8176871,32.0678947 C76.1010204,32.0678947 76.3959184,32.0678947 76.7833333,32.1084211 L77.0435374,32.1084211 L77.0435374,31.3384211 L76.870068,31.3384211 C76.4710884,31.3094737 76.1414966,31.2978947 75.8234694,31.2978947 C75.077551,31.2978947 74.0482993,31.3963158 73.672449,32.2531579 C73.4775634,32.7162712 73.3829662,33.2154948 73.394898,33.7178947 C73.3937457,34.253863 73.5102096,34.7835405 73.7360544,35.2694737 C74.0251701,35.8136842 74.7017007,36.0684211 75.852381,36.0684211 C76.1588435,36.0684211 76.4826531,36.0684211 76.7717687,36.0336842 L77.0493197,36.0336842 L77.0493197,35.2231579 L76.7486395,35.2463158 Z" id="Shape" fill="#3E3A39"></path>
            <path d="M71.2091837,31.4021053 C71.2091837,31.9810526 71.2091837,32.6178947 71.2091837,33.2315789 L71.2091837,34.54 L68.6534014,31.2052632 L67.9248299,31.2052632 L67.9248299,35.9873684 L68.8095238,35.9873684 L68.8095238,34.0421053 C68.8095238,33.6484211 68.8095238,33.2547368 68.8095238,32.8842105 L68.8095238,32.8147368 L71.2785714,36.0047368 L72.0996599,36.0047368 L72.0996599,31.2284211 L71.214966,31.2284211 L71.2091837,31.4021053 Z" id="Shape" fill="#3E3A39"></path>
            <path d="M60.0608844,31.4021053 C60.0608844,31.6510526 60.0608844,31.9 60.0608844,32.1489474 L60.0608844,34.54 L57.4993197,31.2052632 L56.764966,31.2052632 L56.764966,35.9873684 L57.6612245,35.9873684 L57.6612245,32.7915789 L60.1360544,35.9815789 L60.9571429,35.9815789 L60.9571429,31.2284211 L60.072449,31.2284211 L60.0608844,31.4021053 Z" id="Shape" fill="#3E3A39"></path>
            <rect id="Rectangle-path" fill="#3E3A39" x="78.3040816" y="31.2863158" width="1" height="4.69526316"></rect>
            <polygon id="Shape" fill="#3E3A39" points="57.8867347 19.1631579 57.412585 15.7647368 56.2156463 15.7647368 56.6897959 19.1631579"></polygon>
            <path d="M43.6738095,17.1947368 L43.5119048,21.5831579 L40.1755102,21.5831579 C39.9557823,21.5831579 39.8227891,21.5021053 39.8459184,21.3110526 L40.1812925,17.9068421 L39.0248299,17.9068421 L38.6894558,21.4210526 C38.6394183,21.779119 38.7692692,22.138818 39.0363946,22.3821053 C39.3123753,22.6202277 39.6744682,22.7333909 40.0367347,22.6947368 L44.0438776,22.6947368 C44.2636054,22.6947368 44.3792517,22.7873684 44.3792517,22.9726316 L44.3792517,24.7789474 L38.4812925,24.7789474 L38.7068027,25.8905263 L44.385034,25.8905263 L44.385034,28.0268421 C44.385034,28.2410526 44.2867347,28.3452632 44.0959184,28.3452632 L39.3544218,28.3452632 L39.5857143,29.4568421 L44.2115646,29.4568421 C44.5764013,29.4914858 44.9390902,29.3718392 45.2119048,29.1268421 C45.4525161,28.8678195 45.5704444,28.5178134 45.5357143,28.1657895 L45.5357143,22.8626316 C45.5689893,22.5075985 45.4441593,22.155947 45.1945578,21.9015789 C45.0477203,21.7649487 44.865319,21.6726317 44.6683673,21.6352632 L44.8244898,17.0905263 C44.8586417,16.7347254 44.7361839,16.3816948 44.4891156,16.1236842 C44.2117943,15.8879896 43.8507653,15.7751589 43.4887755,15.8110526 L38.2846939,15.8110526 L38.2846939,16.9168421 L43.3673469,16.9168421 C43.5581633,16.9168421 43.6738095,17.0094737 43.6738095,17.1947368 Z" id="Shape" fill="#3E3A39"></path>
            <path d="M86.6479592,27.3668421 C87.1394558,28.0326316 87.6945578,28.7389474 88.3248299,29.4568421 L89.8397959,29.4568421 C89.8397959,29.4568421 88.6544218,28.1136842 87.364966,26.3073684 C88.1613743,25.1839388 88.8432444,23.9833697 89.4003401,22.7236842 C89.5027666,22.4161687 89.4483402,22.0779271 89.2546357,21.81818 C89.0609311,21.558433 88.7524905,21.4100902 88.4289116,21.4210526 L83.5717687,21.4210526 L83.5717687,17.2121053 C83.5717687,17.0268421 83.6816327,16.9342105 83.9071429,16.9342105 L87.5210884,16.9342105 C87.7408163,16.9342105 87.8564626,17.0268421 87.8564626,17.2121053 L87.8564626,18.9489474 C87.8564626,19.1631579 87.7639456,19.2731579 87.5673469,19.2731579 L85.3180272,19.2731579 L85.3180272,20.3847368 L87.6772109,20.3847368 C88.0420475,20.4193806 88.4047364,20.2997339 88.677551,20.0547368 C88.9201665,19.7969141 89.0384112,19.445969 89.0013605,19.0936842 L89.0013605,17.1078947 C89.0355125,16.7520939 88.9130547,16.3990633 88.6659864,16.1410526 C88.3865646,15.9050349 88.0236486,15.7922663 87.6598639,15.8284211 L83.762585,15.8284211 C83.4005262,15.7918477 83.039237,15.9047597 82.7622449,16.1410526 C82.5198239,16.3901481 82.3974402,16.7324018 82.4268707,17.0789474 L82.4268707,29.4568421 L83.5833333,29.4568421 L83.5833333,22.4284211 L87.8911565,22.4284211 C87.9679948,22.4293623 88.0387593,22.4704261 88.0777725,22.5367123 C88.1167856,22.6029984 88.1183784,22.6848747 88.0819728,22.7526316 C87.6903729,23.635769 87.2180684,24.4807681 86.6710884,25.2768421 C86.1902654,24.5629251 85.7463704,23.8247604 85.3411565,23.0652632 L84.057483,23.0652632 C84.6031005,24.2092287 85.2372332,25.3087209 85.9540816,26.3536842 L85.8731293,26.4752632 C84.9826531,27.7547368 84.1384354,29.0110526 83.7510204,29.4568421 L85.185034,29.4568421 C85.7285714,28.8026316 86.1506803,28.0673684 86.5727891,27.4942105 L86.6479592,27.3668421 Z" id="Shape" fill="#3E3A39"></path>
            <polygon id="Shape" fill="#3E3A39" points="62.2234694 29.4568421 74.7884354 29.4568421 74.7884354 28.3510526 72.3887755 28.3510526 72.7241497 25.7110526 71.4809524 25.7110526 71.1455782 28.3510526 69.0755102 28.3510526 69.0755102 24.2984211 73.9731293 24.2984211 73.9731293 23.1926316 69.0755102 23.1926316 69.0755102 20.7436842 72.5102041 20.7436842 72.5102041 19.6321053 64.4554422 19.6321053 64.4554422 20.7436842 67.8901361 20.7436842 67.8901361 23.1926316 62.992517 23.1926316 62.992517 24.2984211 67.8901361 24.2984211 67.8901361 28.3510526 65.7969388 28.3510526 65.4615646 25.7110526 64.2183673 25.7110526 64.5537415 28.3510526 62.2234694 28.3510526"></polygon>
            <path d="M65.7159864,17.3163158 C65.912585,17.0210526 66.0860544,16.94 66.6469388,16.94 L70.3129252,16.94 C70.8911565,16.94 71.0530612,17.0210526 71.2438776,17.3163158 C71.8221088,18.15 72.9785714,19.9852632 73.470068,20.7436842 L75.0486395,20.7436842 C74.4993197,19.9273684 73.0479592,17.6289474 72.4928571,16.8184211 C72.1116658,16.1904647 71.4223393,15.8166171 70.6887755,15.84 L70.3418367,15.84 L70.0642857,15.2205263 C70.8217687,14.96 71.307483,14.3578947 71.1687075,13.8194737 C71.029932,13.2810526 70.1972789,12.9742105 69.3530612,13.2057895 C68.8031186,13.3180073 68.3393577,13.6856059 68.1040816,14.1957895 C67.991034,13.9779565 67.77076,13.8368066 67.5258503,13.8252632 C67.5604907,13.7206965 67.5780632,13.6112211 67.5778912,13.5010526 C67.5678864,12.9956524 67.2063198,12.5660621 66.7105442,12.4705263 L66.7105442,11.6136842 C66.7106278,11.5532739 66.6858973,11.495487 66.642154,11.4538794 C66.5984107,11.4122718 66.5395038,11.3905047 66.4792517,11.3936842 C66.4184272,11.3936642 66.3601738,11.4182457 66.3177122,11.46185 C66.2752506,11.5054543 66.2521819,11.5643834 66.2537415,11.6252632 L66.2537415,12.4878947 C66.1236558,12.5206907 66.001651,12.5797984 65.8952381,12.6615789 L65.3170068,12.0421053 C65.2717962,11.9903755 65.2064085,11.9608091 65.1377551,11.9610526 C65.0827019,11.9635391 65.0299434,11.983856 64.987415,12.0189474 C64.8985567,12.1109579 64.8985567,12.2569368 64.987415,12.3489474 L65.5656463,13.0205263 C65.4816496,13.1792245 65.4379607,13.3561848 65.4384354,13.5357895 C65.4508007,14.1147622 65.9182829,14.5802656 66.4965986,14.5894737 C66.58912,14.5891543 66.6809506,14.5735042 66.7683673,14.5431579 C66.7767483,14.7291288 66.855273,14.9049937 66.9880952,15.0352632 L66.577551,15.84 L66.2537415,15.84 C65.5219268,15.8175036 64.8347356,16.1913915 64.4554422,16.8184211 C63.8772109,17.6289474 62.4489796,19.9273684 61.8938776,20.7436842 L63.4782313,20.7436842 C64.0102041,19.9852632 65.1666667,18.15 65.7159864,17.3163158 Z M69.5959184,15.3305263 L69.8272109,15.84 L69.2489796,15.84 L69.1853741,15.3421053 C69.3222496,15.35265 69.4598528,15.3487691 69.5959184,15.3305263 Z M68.6996599,15.2436842 L68.7748299,15.8226316 L68.1965986,15.8226316 L68.2833333,14.9947368 C68.4004621,15.1095568 68.5431534,15.1948807 68.6996599,15.2436842 Z M67.4391156,15.2436842 L67.5027211,15.2436842 C67.6162247,15.2423939 67.7275796,15.2125297 67.8265306,15.1568421 L67.7513605,15.8573684 L67.1210884,15.8573684 L67.4391156,15.2436842 Z" id="Shape" fill="#3E3A39"></path>
            <path d="M38.8166667,29.4568421 L38.2384354,26.4057895 L37.0819728,26.4057895 L37.3363946,27.7489474 L35.497619,27.8531579 L35.497619,24.8947368 L36.4285714,24.8947368 C36.7906995,24.9319967 37.1522527,24.8190022 37.4289116,24.5821053 C37.6780824,24.3251034 37.8026962,23.9719461 37.770068,23.6152632 L37.770068,18.4626316 C37.8009692,18.1078986 37.6764826,17.7572142 37.4289116,17.5015789 C37.1522527,17.264682 36.7906995,17.1516875 36.4285714,17.1889474 L35.4860544,17.1889474 L35.4860544,15.7647368 L34.3295918,15.7647368 L34.3295918,17.1889474 L33.3986395,17.1889474 C33.0365114,17.1516875 32.6749582,17.264682 32.3982993,17.5015789 C32.1480065,17.7555135 32.0230583,18.107498 32.0571429,18.4626316 L32.0571429,23.5863158 C32.0175486,23.9406216 32.1360268,24.2943781 32.3809524,24.5531579 C32.6576113,24.7900548 33.0191645,24.9030494 33.3812925,24.8657895 L34.3180272,24.8657895 L34.3180272,27.9168421 L31.8027211,28.0615789 L31.8027211,29.1673684 L37.585034,28.8431579 L37.7006803,29.4568421 L38.8166667,29.4568421 Z M35.4860544,18.2947368 L36.2782313,18.2947368 C36.5037415,18.2947368 36.6136054,18.3873684 36.6136054,18.5726316 L36.6136054,23.4821053 C36.6136054,23.6673684 36.5037415,23.76 36.2782313,23.76 L35.4860544,23.76 L35.4860544,18.2947368 Z M34.3295918,23.76 L33.537415,23.76 C33.3119048,23.76 33.2020408,23.6673684 33.2020408,23.4821053 L33.2020408,18.5726316 C33.2020408,18.3873684 33.3119048,18.2947368 33.537415,18.2947368 L34.3295918,18.2947368 L34.3295918,23.76 Z" id="Shape" fill="#3E3A39"></path>
            <path d="M80.5013605,28.0268421 C80.5013605,28.2410526 80.4030612,28.3452632 80.2122449,28.3452632 L78.7840136,28.3452632 L78.7840136,29.4568421 L80.3221088,29.4568421 C80.6869455,29.4914858 81.0496344,29.3718392 81.322449,29.1268421 C81.5650645,28.8690193 81.6833091,28.5180743 81.6462585,28.1657895 L81.6462585,17.0442105 C81.6788867,16.6875276 81.5542728,16.3343703 81.305102,16.0773684 C81.0271335,15.8428536 80.6666137,15.730182 80.3047619,15.7647368 L77.9918367,15.7647368 C77.6283232,15.731214 77.2664009,15.8436738 76.9857143,16.0773684 C76.738646,16.335379 76.6161882,16.6884097 76.6503401,17.0442105 L76.6503401,26.4868421 C76.6503401,28.6578947 76.2571429,29.3815789 76.2166667,29.4568421 L77.3210884,29.4568421 C77.3673469,29.4568421 77.8010204,29.2021053 77.8010204,26.4868421 L77.8010204,24.9757895 L80.4840136,24.9757895 L80.5013605,28.0268421 Z M77.8183673,17.1484211 C77.8183673,16.9631579 77.9282313,16.8705263 78.1537415,16.8705263 L80.1602041,16.8705263 C80.3857143,16.8705263 80.5013605,16.9631579 80.5013605,17.1484211 L80.5013605,19.5857895 L77.8183673,19.5857895 L77.8183673,17.1484211 Z M77.8183673,23.8873684 L77.8183673,20.68 L80.5013605,20.68 L80.5013605,23.8873684 L77.8183673,23.8873684 Z" id="Shape" fill="#3E3A39"></path>
            <path d="M54.7816327,29.4568421 L57.0945578,26.0410526 L59.407483,29.4568421 L60.7142857,29.4568421 L57.8231293,24.9642105 C58.3709206,24.1119409 58.8504248,23.2175648 59.2571429,22.2894737 C60.0114573,20.3568322 60.441295,18.3125747 60.5292517,16.2394737 L59.3727891,16.2394737 C59.2811686,18.1357748 58.8908687,20.0056725 58.2163265,21.78 C57.9067046,22.4952242 57.5473178,23.1878038 57.1408163,23.8526316 C56.7387918,23.1852811 56.3795634,22.4930067 56.0653061,21.78 C55.3907639,20.0056725 55.0004641,18.1357748 54.9088435,16.2394737 L53.752381,16.2394737 C53.8107319,18.3073536 54.2092763,20.3514448 54.9319728,22.2894737 C55.3386909,23.2175648 55.818195,24.1119409 56.3659864,24.9642105 L53.4401361,29.4568421 L54.7816327,29.4568421 Z" id="Shape" fill="#3E3A39"></path>
            <path d="M51.6591837,26.4057895 L51.9251701,27.7894737 L50.907483,27.8473684 L50.907483,24.8947368 L51.85,24.8947368 C52.2120589,24.9313102 52.5733481,24.8183982 52.8503401,24.5821053 C53.1097836,24.3193767 53.2372189,23.9536097 53.1972789,23.5863158 L53.1972789,18.4626316 C53.2281801,18.1078986 53.1036934,17.7572142 52.8561224,17.5015789 C52.5791304,17.265286 52.2178412,17.152374 51.8557823,17.1889474 L50.8843537,17.1889474 L50.8843537,15.7647368 L49.7278912,15.7647368 L49.7278912,17.1889474 L48.820068,17.1889474 C48.4580092,17.152374 48.0967199,17.265286 47.8197279,17.5015789 C47.5721569,17.7572142 47.4476702,18.1078986 47.4785714,18.4626316 L47.4785714,23.5863158 C47.4459433,23.9429987 47.5705571,24.296156 47.8197279,24.5531579 C48.0967199,24.7894508 48.4580092,24.9023628 48.820068,24.8657895 L49.7568027,24.8657895 L49.7568027,27.9168421 L47.212585,28.0615789 L47.212585,29.1673684 L52.1333333,28.8952632 L52.2431973,29.4742105 L53.3996599,29.4742105 L52.8214286,26.4231579 L51.6591837,26.4057895 Z M50.8843537,18.2947368 L51.6823129,18.2947368 C51.9020408,18.2947368 52.0176871,18.3873684 52.0176871,18.5726316 L52.0176871,23.4821053 C52.0176871,23.6673684 51.9020408,23.76 51.6823129,23.76 L50.8843537,23.76 L50.8843537,18.2947368 Z M48.9646259,23.7368421 C48.744898,23.7368421 48.6292517,23.6442105 48.6292517,23.4589474 L48.6292517,18.5726316 C48.6292517,18.3873684 48.744898,18.2947368 48.9646259,18.2947368 L49.7568027,18.2947368 L49.7568027,23.7368421 L48.9646259,23.7368421 Z" id="Shape" fill="#3E3A39"></path>
            <path d="M123.030272,21.1721053 C122.232313,20.8536842 121.538435,20.5584211 120.942857,20.2747368 L120.942857,21.4326316 L117.253741,21.4326316 L117.253741,23.2794737 L122.376871,23.2794737 L122.376871,24.53 L117.253741,24.53 L117.253741,28.0210526 L123.267347,28.0210526 L123.267347,29.2136842 L109.759864,29.2136842 L109.759864,28.0210526 L115.82551,28.0210526 L115.82551,24.5068421 L110.65034,24.5068421 L110.65034,23.2563158 L115.82551,23.2563158 L115.82551,21.4210526 L111.957143,21.4210526 L111.957143,20.4542105 C111.378912,20.7321053 110.765986,21.0331579 110.054762,21.3515789 C109.817687,20.9521053 109.557483,20.5352632 109.279932,20.1010526 C112.533447,18.7887719 114.834807,17.2178947 116.184014,15.3884211 L117.791497,15.51 L117.432993,15.9847368 C119.131552,17.8424519 121.317567,19.184574 123.741497,19.8578947 C123.473428,20.2784254 123.235747,20.7176163 123.030272,21.1721053 Z M113.148299,27.7257895 C113.086,27.6150042 113.005904,27.5152482 112.911224,27.4305263 C112.438257,26.7777083 111.920451,26.1586665 111.361565,25.5778947 L112.437075,24.9236842 C112.870748,25.3636842 113.44898,26.0005263 114.171769,26.8342105 C114.131293,26.7936842 114.171769,26.8342105 114.293197,27.0136842 L113.148299,27.7257895 Z M116.617687,16.94 C115.397299,18.256491 113.969359,19.3634877 112.390816,20.2168421 L120.85034,20.2168421 C119.24421,19.3959405 117.803365,18.2850179 116.60034,16.94 L116.617687,16.94 Z M119.693878,27.7257895 L118.62415,27.0136842 C119.136848,26.4926316 119.792177,25.7959649 120.590136,24.9236842 L121.717687,25.5778947 C121.480612,25.8210526 121.139456,26.1568421 120.705782,26.6547368 C120.272109,27.1526316 119.936735,27.4884211 119.693878,27.7257895 Z" id="Shape" fill="#3E3A39"></path>
            <path d="M124.817007,17.1773684 L124.817007,16.1063158 L132.131633,16.1063158 L132.131633,17.1773684 L124.817007,17.1773684 Z M125.054082,29.6305263 L125.054082,22.3647368 L131.958163,22.3647368 L131.958163,28.0210526 C132.052644,28.421884 131.946793,28.8436896 131.674304,29.1522024 C131.401815,29.4607153 130.996641,29.6174932 130.587755,29.5726316 L129.633673,29.5726316 C129.590128,29.1897136 129.510754,28.8117376 129.396599,28.4436842 C129.690557,28.494344 129.989041,28.5137501 130.287075,28.5015789 C130.726531,28.5421053 130.923129,28.3394737 130.865306,27.9226316 L130.865306,23.3778947 L126.106463,23.3778947 L126.106463,29.6305263 L125.054082,29.6305263 Z M125.586054,21.4094737 L125.586054,18.1326316 L131.420408,18.1326316 L131.420408,21.4210526 L125.586054,21.4094737 Z M126.540136,26.7126316 L126.540136,25.6994737 L128.563946,25.6994737 C128.881973,25.0626316 129.2,24.3505263 129.518027,23.5573684 L130.408503,23.9105263 C130.287075,24.1884211 130.090476,24.5878947 129.830272,25.1031579 C129.744294,25.3021875 129.645797,25.4955579 129.535374,25.6821053 L130.483673,25.6821053 L130.483673,26.6952632 L128.997619,26.6952632 L128.997619,29.1963158 L127.985714,29.1963158 L127.985714,26.7126316 L126.540136,26.7126316 Z M127.494218,25.5547368 C127.413265,25.3964912 127.27449,25.1185965 127.077891,24.7210526 C126.933531,24.4549527 126.773262,24.1978186 126.597959,23.9510526 L127.430612,23.5921053 C127.764142,24.0976558 128.04325,24.6371568 128.263265,25.2015789 L127.494218,25.5547368 Z M126.719388,19.1052632 L126.719388,20.4715789 L130.287075,20.4715789 L130.287075,19.1052632 L126.719388,19.1052632 Z M132.553741,29.2947368 L132.310884,28.0384211 C132.82551,28.0384211 133.663946,28.0036842 134.814626,27.9226316 C133.981973,28.0036842 134.039796,28.0036842 134.993878,27.9226316 L134.993878,24.5647368 L133.837415,24.5647368 L133.837415,25.4736842 L132.82551,25.4736842 L132.82551,18.1905263 L134.970748,18.1905263 L134.970748,15.5678947 L136.127211,15.5678947 L136.127211,18.1905263 L138.272449,18.1905263 L138.272449,24.5589474 L136.069388,24.5589474 L136.069388,27.8473684 L137.497619,27.7257895 C137.457143,27.5289474 137.39932,27.2278947 137.318367,26.8342105 C137.202721,26.3189474 137.098639,25.9368421 137.023469,25.6763158 L138.02381,25.4736842 C138.104762,25.7515789 138.22619,26.1510526 138.382313,26.6663158 C138.70034,27.8589474 138.920068,28.7678947 139.035714,29.4047368 L138.02381,29.6421053 L137.85034,28.7505263 C135.230952,28.9763158 133.461565,29.1557895 132.553741,29.2773684 L132.553741,29.2947368 Z M133.860544,19.3426316 L133.860544,23.3952632 L135.109524,23.3952632 L135.109524,19.3426316 L133.860544,19.3426316 Z M137.254762,19.3426316 L136.063605,19.3426316 L136.063605,23.3952632 L137.254762,23.3952632 L137.254762,19.3426316 Z" id="Shape" fill="#3E3A39"></path>
            <path d="M140.290476,17.7736842 C140.25198,17.3496902 140.170611,16.9307019 140.047619,16.5231579 C141.82124,16.4744227 143.590152,16.3158742 145.344218,16.0484211 L145.644898,17.2989474 C144.934399,17.4151586 144.218358,17.4943879 143.49966,17.5363158 L143.49966,19.8 L145.523469,19.8 L145.523469,21.1142105 L143.49966,21.1142105 L143.49966,22.7815789 L143.915986,22.3010526 C144.027746,22.3666639 144.129091,22.4486207 144.216667,22.5442105 C145.008844,23.1752632 145.563946,23.6326316 145.881973,23.9105263 L144.991497,24.9236842 C144.870068,24.8078947 144.673469,24.6052632 144.413265,24.3447368 C144.014286,23.9915789 143.719388,23.7136842 143.517007,23.5110526 L143.517007,29.7521053 L142.210204,29.7521053 L142.210204,23.4936842 C141.716102,24.8043724 141.055329,26.0458284 140.244218,27.1873684 L139.770068,25.6415789 C140.789442,24.2731751 141.571353,22.7426465 142.082993,21.1142105 L139.931973,21.1142105 L139.931973,19.8 L142.192857,19.8 L142.192857,17.6578947 L140.290476,17.7736842 Z M145.344218,26.4173684 L145.228571,25.1031579 L150.640816,24.5647368 L150.640816,15.5678947 L152.011224,15.5678947 L152.011224,24.4489474 L154.156463,24.2694737 L154.214286,25.5778947 L152.011224,25.7573684 L152.011224,29.7521053 L150.640816,29.7521053 L150.640816,25.8789474 L145.344218,26.4173684 Z M148.379932,23.5573684 L145.939796,21.4673684 L146.772449,20.5757895 C147.250454,20.9347368 147.905782,21.4519298 148.738435,22.1273684 C148.541837,22.0057895 148.738435,22.1621053 149.27619,22.6021053 L148.379932,23.5573684 Z M149.183673,19.9794737 C148.987075,19.8231579 148.709524,19.5857895 148.35102,19.2615789 C147.634014,18.6305263 147.078912,18.15 146.685714,17.8315789 L147.518367,16.94 C148.189116,17.4552632 149.044898,18.15 150.07415,19.0242105 L149.183673,19.9794737 Z" id="Shape" fill="#3E3A39"></path>
            <path d="M155.168367,19.5047368 L155.168367,18.2542105 L156.94932,18.2542105 L156.94932,15.5678947 L158.261905,15.5678947 L158.261905,18.2542105 L159.805782,18.2542105 L159.805782,19.5047368 L158.261905,19.5047368 L158.261905,22.3010526 C158.824395,22.1935726 159.38038,22.0544041 159.927211,21.8842105 L159.927211,23.2563158 C159.771636,23.3059654 159.613321,23.3465595 159.453061,23.3778947 L158.261905,23.6731579 L158.261905,27.9052632 C158.300454,29.0168421 157.803175,29.5726316 156.770068,29.5726316 L155.463265,29.5726316 C155.3903,29.1311522 155.291836,28.6942791 155.168367,28.2642105 L156.238095,28.2642105 C156.752721,28.2989474 156.989796,28.0615789 156.94932,27.5463158 L156.94932,23.9742105 L155.104762,24.5068421 L154.989116,23.0189474 C155.202937,22.9593297 155.421579,22.9186468 155.642517,22.8973684 C156.220748,22.7815789 156.631293,22.6831579 156.94932,22.6021053 L156.94932,19.5047368 L155.168367,19.5047368 Z M160.464966,18.9663158 L160.464966,17.7157895 L163.97483,17.7157895 L163.97483,15.51 L165.37415,15.51 L165.37415,17.7157895 L169.242517,17.7157895 L169.242517,18.9663158 L165.37415,18.9663158 L165.37415,21.1721053 L168.52551,21.1721053 L168.52551,22.4226316 C167.903079,24.0331338 166.949599,25.4947116 165.726871,26.7126316 C166.852502,27.5043593 168.130583,28.0525052 169.479592,28.3221053 C169.398639,28.4784211 169.277211,28.7157895 169.121088,29.0342105 C168.964966,29.3526316 168.785714,29.5726316 168.704762,29.6942105 C167.290544,29.1317394 165.934846,28.4317206 164.657143,27.6042105 C163.215604,28.5046386 161.67992,29.2443101 160.077551,29.81 C159.996599,29.6536842 159.834694,29.3757895 159.597619,28.9763158 C159.487613,28.8460534 159.388953,28.7065963 159.302721,28.5594737 C160.814082,28.1458525 162.250472,27.4951593 163.558503,26.6315789 C162.407974,25.4237529 161.533877,23.979608 160.996939,22.3994737 L161.118367,22.3415789 L160.580612,22.3415789 L160.580612,21.1721053 L163.97483,21.1721053 L163.97483,18.9663158 L160.464966,18.9663158 Z M167.068367,22.3647368 L162.367347,22.3647368 C162.893964,23.6678556 163.660956,24.8600313 164.628231,25.8789474 C165.685422,24.897627 166.517871,23.698759 167.068367,22.3647368 Z" id="Shape" fill="#3E3A39"></path>
            <polygon id="Shape" fill="#3E3A39" points="109.771429 36.0568421 109.771429 32.4905263 111.777891 32.4905263 111.777891 32.89 110.262925 32.89 110.262925 34.1115789 111.714286 34.1115789 111.714286 34.5168421 110.262925 34.5168421 110.262925 36.0568421"></polygon>
            <polygon id="Shape" fill="#3E3A39" points="112.940136 36.0568421 112.442857 36.0568421 112.442857 32.4905263 112.940136 32.4905263"></polygon>
            <polygon id="Shape" fill="#3E3A39" points="116.288095 36.0568421 114.293197 33.2547368 114.293197 36.0568421 113.819048 36.0568421 113.819048 32.4905263 114.293197 32.4905263 116.288095 35.3157895 116.288095 32.4905263 116.756463 32.4905263 116.756463 36.0568421"></polygon>
            <path d="M120.653741,36.0568421 L120.15068,36.0568421 L119.826871,35.1942105 L118.161565,35.1942105 L117.837755,36.0568421 L117.334694,36.0568421 L118.751361,32.4905263 L119.237075,32.4905263 L120.653741,36.0568421 Z M118.340816,34.8005263 L119.693878,34.8005263 L119.005782,32.9363158 L118.340816,34.8005263 Z" id="Shape" fill="#3E3A39"></path>
            <polygon id="Shape" fill="#3E3A39" points="123.70102 36.0568421 121.70034 33.2547368 121.70034 36.0568421 121.231973 36.0568421 121.231973 32.4905263 121.70034 32.4905263 123.70102 35.3157895 123.70102 32.4905263 124.169388 32.4905263 124.169388 36.0568421"></polygon>
            <path d="M126.678912,32.4210526 C126.847429,32.420611 127.015693,32.4341662 127.181973,32.4615789 C127.331558,32.4898931 127.478545,32.5305583 127.621429,32.5831579 L127.540476,32.9652632 C127.411518,32.922995 127.280235,32.8882005 127.147279,32.8610526 C127.012216,32.8332502 126.87462,32.8196675 126.736735,32.8205263 C126.35309,32.7988215 125.9772,32.9347276 125.695918,33.1968421 C125.203784,33.8258687 125.203784,34.7099208 125.695918,35.3389474 C125.9772,35.6010618 126.35309,35.736968 126.736735,35.7152632 C126.874472,35.7132447 127.0118,35.6996886 127.147279,35.6747368 C127.280235,35.647589 127.411518,35.6127945 127.540476,35.5705263 L127.621429,35.9468421 C127.480305,36.0047549 127.332773,36.0455707 127.181973,36.0684211 C127.015841,36.097669 126.847585,36.11316 126.678912,36.1147368 C126.410303,36.119377 126.143314,36.0722029 125.892517,35.9757895 C125.673966,35.8899917 125.476664,35.7576355 125.314286,35.5878947 C125.155715,35.4210076 125.031884,35.2242066 124.95,35.0089474 C124.787841,34.5282518 124.787841,34.0075377 124.95,33.5268421 C125.032962,33.3121234 125.156668,33.1155218 125.314286,32.9478947 C125.47847,32.7817458 125.675387,32.6516195 125.892517,32.5657895 C126.142925,32.4673992 126.409927,32.4182572 126.678912,32.4210526 Z" id="Shape" fill="#3E3A39"></path>
            <polygon id="Shape" fill="#3E3A39" points="128.806803 36.0568421 128.315306 36.0568421 128.315306 32.4905263 128.806803 32.4905263"></polygon>
            <path d="M132.727211,36.0568421 L132.22415,36.0568421 L131.90034,35.1942105 L130.235034,35.1942105 L129.917007,36.0568421 L129.413946,36.0568421 L130.830612,32.4905263 L131.310544,32.4905263 L132.727211,36.0568421 Z M130.414286,34.8005263 L131.784694,34.8005263 L131.102381,32.9363158 L130.414286,34.8005263 Z" id="Shape" fill="#3E3A39"></path>
            <polygon id="Shape" fill="#3E3A39" points="133.802721 32.4905263 133.802721 35.6573684 135.306122 35.6573684 135.306122 36.0568421 133.322789 36.0568421 133.322789 32.4905263"></polygon>
            <polygon id="Shape" fill="#3E3A39" points="139.047279 32.4905263 139.047279 32.89 138.00068 32.89 138.00068 36.0568421 137.509184 36.0568421 137.509184 32.89 136.462585 32.89 136.462585 32.4905263"></polygon>
            <polygon id="Shape" fill="#3E3A39" points="139.596599 32.4905263 141.579932 32.4905263 141.579932 32.89 140.088095 32.89 140.088095 34.0478947 141.516327 34.0478947 141.516327 34.4531579 140.088095 34.4531579 140.088095 35.6747368 141.597279 35.6747368 141.597279 36.0742105 139.596599 36.0742105"></polygon>
            <path d="M143.979592,32.4210526 C144.150019,32.4208385 144.320185,32.4343913 144.488435,32.4615789 C144.636333,32.4890405 144.781473,32.5297298 144.922109,32.5831579 L144.846939,32.9652632 C144.717981,32.922995 144.586697,32.8882005 144.453741,32.8610526 C144.318635,32.8335377 144.181069,32.819958 144.043197,32.8205263 C143.657784,32.7985746 143.280011,32.9344068 142.996599,33.1968421 C142.504465,33.8258687 142.504465,34.7099208 142.996599,35.3389474 C143.280011,35.6013826 143.657784,35.7372149 144.043197,35.7152632 C144.180918,35.7129546 144.318222,35.6994009 144.453741,35.6747368 C144.586697,35.647589 144.717981,35.6127945 144.846939,35.5705263 L144.922109,35.9468421 C144.783272,36.0055788 144.637549,36.0464317 144.488435,36.0684211 C144.320326,36.0974246 144.150169,36.1129127 143.979592,36.1147368 C143.712911,36.1187779 143.447928,36.0716115 143.19898,35.9757895 C142.979631,35.8915266 142.782013,35.7589586 142.620748,35.5878947 C142.460651,35.4222028 142.336611,35.2250699 142.256463,35.0089474 C142.086677,34.529536 142.086677,34.0062535 142.256463,33.5268421 C142.337206,33.3110147 142.461174,33.1139971 142.620748,32.9478947 C142.78393,32.7805261 142.981124,32.6502168 143.19898,32.5657895 C143.44754,32.4679903 143.712536,32.4188563 143.979592,32.4210526 Z" id="Shape" fill="#3E3A39"></path>
            <polygon id="Shape" fill="#3E3A39" points="147.905782 36.0568421 147.905782 34.4531579 146.078571 34.4531579 146.078571 36.0568421 145.587075 36.0568421 145.587075 32.4905263 146.078571 32.4905263 146.078571 34.0363158 147.905782 34.0363158 147.905782 32.4905263 148.397279 32.4905263 148.397279 36.0568421"></polygon>
            <polygon id="Shape" fill="#3E3A39" points="151.716327 36.0568421 149.721429 33.2547368 149.721429 36.0568421 149.253061 36.0568421 149.253061 32.4905263 149.721429 32.4905263 151.716327 35.3157895 151.716327 32.4905263 152.190476 32.4905263 152.190476 36.0568421"></polygon>
            <path d="M154.595918,36.1205263 C154.341159,36.1253857 154.088459,36.0739923 153.855782,35.97 C153.646269,35.8776737 153.458955,35.7414561 153.306463,35.5705263 C153.160388,35.3996048 153.046731,35.2034013 152.971088,34.9915789 C152.896655,34.7636151 152.859554,34.5250939 152.861224,34.2852632 C152.859143,34.0454022 152.896254,33.8068148 152.971088,33.5789474 C153.046731,33.367125 153.160388,33.1709215 153.306463,33 C153.458955,32.8290702 153.646269,32.6928526 153.855782,32.6005263 C154.087852,32.4946525 154.340984,32.4431714 154.595918,32.45 C154.85262,32.4442842 155.107388,32.4956964 155.341837,32.6005263 C155.550489,32.6914569 155.736198,32.8279437 155.885374,33 C156.03536,33.1681134 156.149483,33.3651197 156.220748,33.5789474 C156.297445,33.8065122 156.336508,34.0450909 156.336395,34.2852632 C156.336098,34.5254019 156.297046,34.7639149 156.220748,34.9915789 C156.149483,35.2054066 156.03536,35.4024129 155.885374,35.5705263 C155.736198,35.7425826 155.550489,35.8790694 155.341837,35.97 C155.10666,36.0725321 154.852402,36.1238413 154.595918,36.1205263 Z M154.595918,35.7268421 C154.783483,35.729603 154.96926,35.6900271 155.139456,35.6110526 C155.294296,35.5434134 155.432456,35.4426295 155.544218,35.3157895 C155.651439,35.177583 155.731851,35.0204873 155.781293,34.8526316 C155.835925,34.6645473 155.86319,34.4695591 155.862245,34.2736842 C155.863682,34.0777765 155.836408,33.8827174 155.781293,33.6947368 C155.733044,33.5281673 155.652485,33.3727504 155.544218,33.2373684 C155.441262,33.1042697 155.308573,32.9971938 155.156803,32.9247368 C154.986607,32.8457624 154.80083,32.8061865 154.613265,32.8089474 C154.427568,32.80626 154.243687,32.8458531 154.07551,32.9247368 C153.922099,32.9971616 153.787519,33.1041663 153.682313,33.2373684 C153.575976,33.3731445 153.497384,33.528557 153.45102,33.6947368 C153.393019,33.8820831 153.365682,34.0775929 153.370068,34.2736842 C153.366083,34.4697518 153.393412,34.6651977 153.45102,34.8526316 C153.498579,35.020115 153.577027,35.1772058 153.682313,35.3157895 C153.78954,35.4454747 153.923723,35.5501881 154.07551,35.6226316 C154.239298,35.6949998 154.41693,35.7305701 154.595918,35.7268421 Z" id="Shape" fill="#3E3A39"></path>
            <polygon id="Shape" fill="#3E3A39" points="157.498639 32.4905263 157.498639 35.6573684 159.013605 35.6573684 159.013605 36.0568421 157.036054 36.0568421 157.036054 32.4905263"></polygon>
            <path d="M160.95068,36.1205263 C160.694197,36.1238413 160.439939,36.0725321 160.204762,35.97 C159.996109,35.8790694 159.810401,35.7425826 159.661224,35.5705263 C159.511238,35.4024129 159.397116,35.2054066 159.32585,34.9915789 C159.249552,34.7639149 159.2105,34.5254019 159.210204,34.2852632 C159.210091,34.0450909 159.249153,33.8065122 159.32585,33.5789474 C159.397116,33.3651197 159.511238,33.1681134 159.661224,33 C159.810401,32.8279437 159.996109,32.6914569 160.204762,32.6005263 C160.439211,32.4956964 160.693979,32.4442842 160.95068,32.45 C161.205615,32.4431714 161.458746,32.4946525 161.690816,32.6005263 C161.900329,32.6928526 162.087643,32.8290702 162.240136,33 C162.386293,33.1698732 162.498216,33.3664737 162.569728,33.5789474 C162.64924,33.8058015 162.688382,34.0448644 162.685374,34.2852632 C162.687909,34.5256261 162.64878,34.7646075 162.569728,34.9915789 C162.498216,35.2040527 162.386293,35.4006531 162.240136,35.5705263 C162.087643,35.7414561 161.900329,35.8776737 161.690816,35.97 C161.45814,36.0739923 161.20544,36.1253857 160.95068,36.1205263 Z M160.95068,35.7268421 C161.136378,35.7295295 161.320258,35.6899364 161.488435,35.6110526 C161.647434,35.5448902 161.78967,35.4440147 161.904762,35.3157895 C162.010048,35.1772058 162.088496,35.020115 162.136054,34.8526316 C162.193663,34.6651977 162.220991,34.4697518 162.217007,34.2736842 C162.221393,34.0775929 162.194056,33.8820831 162.136054,33.6947368 C162.089691,33.528557 162.011099,33.3731445 161.904762,33.2373684 C161.799556,33.1041663 161.664976,32.9971616 161.511565,32.9247368 C161.343387,32.8458531 161.159507,32.80626 160.97381,32.8089474 C160.786245,32.8061865 160.600468,32.8457624 160.430272,32.9247368 C160.278502,32.9971938 160.145813,33.1042697 160.042857,33.2373684 C159.93459,33.3727504 159.854031,33.5281673 159.805782,33.6947368 C159.750667,33.8827174 159.723393,34.0777765 159.72483,34.2736842 C159.723885,34.4695591 159.751149,34.6645473 159.805782,34.8526316 C159.855223,35.0204873 159.935635,35.177583 160.042857,35.3157895 C160.148417,35.4448131 160.280569,35.5494812 160.430272,35.6226316 C160.594282,35.6942942 160.771758,35.7298333 160.95068,35.7268421 Z" id="Shape" fill="#3E3A39"></path>
            <path d="M165.067687,32.4210526 C165.261364,32.4208274 165.454741,32.4363167 165.645918,32.4673684 C165.816924,32.4964953 165.982599,32.5511382 166.137415,32.6294737 L166.056463,33.0173684 C165.902369,32.9569771 165.743848,32.9085876 165.582313,32.8726316 C165.416843,32.8381086 165.248276,32.820649 165.079252,32.8205263 C164.693296,32.7976988 164.315551,32.938478 164.038435,33.2084211 C163.768988,33.5089784 163.631474,33.9053411 163.656803,34.3084211 C163.610736,34.7000786 163.747631,35.0911224 164.027833,35.3682779 C164.308036,35.6454334 164.700233,35.7777289 165.090816,35.7268421 C165.206299,35.7355386 165.322272,35.7355386 165.437755,35.7268421 C165.537596,35.7164817 165.636297,35.6971046 165.732653,35.6689474 L165.732653,34.5110526 L166.183673,34.5110526 L166.183673,35.8947368 C166.016277,35.9626742 165.841675,36.0112349 165.663265,36.0394737 C165.455496,36.0788299 165.244446,36.0982162 165.032993,36.0973684 C164.764771,36.1037121 164.497821,36.0585103 164.246599,35.9642105 C164.031111,35.8832206 163.834365,35.7591172 163.668367,35.5994737 C163.505725,35.4357962 163.381316,35.2380772 163.304082,35.0205263 C163.215518,34.7857264 163.172348,34.5362083 163.176871,34.2852632 C163.172915,34.024931 163.216012,33.7660283 163.304082,33.5210526 C163.473468,33.0676514 163.829459,32.7091098 164.281293,32.5368421 C164.534183,32.4505742 164.800698,32.4113323 165.067687,32.4210526 Z" id="Shape" fill="#3E3A39"></path>
            <polygon id="Shape" fill="#3E3A39" points="168.872449 32.4905263 169.421769 32.4905263 168.265306 34.65 168.265306 36.0568421 167.77381 36.0568421 167.77381 34.65 166.617347 32.4905263 167.108844 32.4905263 168.005102 34.1926316"></polygon>
        </g>
    </g>
</svg>